# xmcd
#
# Track frame offsets: 
#        150
#        13683
#        27346
#        41800
#        56032
#        71298
#        88285
#        101772
#        119764
#        136995
#        154528
#        170913
#
# Disc length: 2477 seconds
#
# Revision: 0
# Processed by: cddbd v1.5.2PL0 Copyright (c) Steve Scherf et al.
# Submitted via: ExactAudioCopyFreeDBPlugin 1.0
#
DISCID=ab09ab0c
DTITLE=Brett Eldredge - Bring You Back
DYEAR=2013
DGENRE=Country
TTITLE0=Tell Me Where To Park 
TTITLE1=Don't Ya 
TTITLE2=Bring You Back 
TTITLE3=On And On 
TTITLE4=Gotta Get There 
TTITLE5=One Mississippi 
TTITLE6=Beat Of The Music 
TTITLE7=Waited Too Long 
TTITLE8=Mean To Me 
TTITLE9=Signs 
TTITLE10=Raymond
TTITLE11=Go On Without Me 
EXTD=
EXTT0=
EXTT1=
EXTT2=
EXTT3=
EXTT4=
EXTT5=
EXTT6=
EXTT7=
EXTT8=
EXTT9=
EXTT10=
EXTT11=
PLAYORDER=
